<svg width="272" height="269" viewBox="0 0 272 269" fill="none" xmlns="http://www.w3.org/2000/svg">
  <path d="M6.83959 182.97L55.3196 197.91C60.0096 199.36 65.1196 198.19 68.7096 194.85L105.89 160.34C110.83 155.75 108.96 147.53 102.53 145.53L51.2896 129.74C48.4796 128.87 45.4396 129.47 43.1796 131.31C43.0296 131.43 42.8796 131.56 42.7396 131.69L3.4396 168.18C-1.4804 172.78 0.409602 180.99 6.8496 182.98L6.83959 182.97Z" fill="#1D5ACB"/>
  <path d="M26.3094 66.411L44.8494 113.631C46.6394 118.201 50.7394 121.461 55.5894 122.191L105.749 129.741C112.419 130.741 117.679 124.161 115.229 117.881L95.6294 67.981C94.5594 65.241 92.1895 63.241 89.3395 62.621C89.1495 62.581 88.9594 62.541 88.7594 62.511L35.7294 54.531C29.0694 53.551 23.8194 60.141 26.2894 66.421L26.3094 66.411Z" fill="#1D5ACB"/>
  <path d="M129.59 5.34088L104.24 49.2809C101.79 53.5309 101.79 58.7709 104.24 63.0209L129.62 106.941C133 112.781 141.42 112.791 144.81 106.961L171.61 60.5209C173.08 57.9709 173.17 54.8709 171.88 52.2609C171.79 52.0909 171.7 51.9109 171.6 51.7409L144.77 5.30087C141.38 -0.519127 132.96 -0.509129 129.59 5.33087V5.34088Z" fill="#1D5ACB"/>
  <path d="M238.9 53.8708L188.74 61.4408C183.89 62.1708 179.79 65.4408 178 70.0108L159.48 117.241C157.02 123.521 162.27 130.111 168.94 129.131L221.95 121.131C224.86 120.691 227.34 118.831 228.58 116.191C228.66 116.011 228.74 115.841 228.81 115.651L248.39 65.7208C250.82 59.4408 245.57 52.8608 238.9 53.8708Z" fill="#1D5ACB"/>
  <path d="M271.93 167.341L234.73 132.841C231.13 129.501 226.02 128.341 221.33 129.791L172.86 144.761C166.41 146.751 164.53 154.971 169.46 159.561L208.77 196.021C210.93 198.021 213.93 198.801 216.76 198.131C216.95 198.091 217.14 198.031 217.32 197.981L268.56 182.161C274.99 180.151 276.85 171.941 271.91 167.351L271.93 167.341Z" fill="#1D5ACB"/>
  <path d="M153.079 268.462H122.319C114.319 268.462 108.829 258.142 110.019 246.472L118.439 163.872C118.979 158.602 123.399 154.512 128.289 154.512H147.109C151.999 154.512 156.429 158.612 156.959 163.872L165.379 246.472C166.569 258.142 161.079 268.462 153.079 268.462Z" fill="#1D5ACB"/>
</svg>
